# Blender 4.4.0
# www.blender.org
mtllib QuenchTank.mtl
o Cube
v 1.000000 6.000000 1.000000
v 1.000000 0.000000 1.000000
v -1.000000 6.000000 1.000000
v -1.000000 0.000000 1.000000
v 1.000000 6.000000 -1.000000
v 1.000000 0.000000 -1.000000
v -1.000000 6.000000 -1.000000
v -1.000000 0.000000 -1.000000
v 1.000000 0.000000 0.177149
v 1.000000 0.000000 -0.177149
v -1.000000 6.000000 0.177149
v -1.000000 6.000000 -0.177149
v -1.000000 0.000000 -0.177149
v -1.000000 0.000000 0.177149
v 1.000000 6.000000 -0.177149
v 1.000000 6.000000 0.177149
v 1.000000 5.439655 1.000000
v 1.000000 3.439655 1.000000
v -1.000000 3.439655 -1.000000
v -1.000000 5.439655 -1.000000
v -1.000000 5.439655 1.000000
v -1.000000 3.439655 1.000000
v 1.000000 5.439655 -1.000000
v 1.000000 3.439655 -1.000000
v 1.000000 5.439655 -0.177149
v 1.000000 3.439655 -0.177149
v 1.000000 5.439655 0.177149
v 1.000000 3.439655 0.177149
v -1.000000 5.439655 0.177149
v -1.000000 3.439655 0.177149
v -1.000000 5.439655 -0.177149
v -1.000000 3.439655 -0.177149
v 1.000000 5.067572 1.000000
v 1.000000 3.811740 1.000000
v -1.000000 3.811739 -1.000000
v -1.000000 5.067571 -1.000000
v -1.000000 5.067572 1.000000
v -1.000000 3.811740 1.000000
v 1.000000 5.067572 -1.000000
v 1.000000 3.811740 -1.000000
v 1.000000 5.067572 -0.177149
v 1.000000 3.811740 -0.177149
v 1.000000 5.067572 0.177149
v 1.000000 3.811740 0.177149
v -1.000000 5.067572 0.177149
v -1.000000 3.811740 0.177149
v -1.000000 5.067572 -0.177149
v -1.000000 3.811740 -0.177149
v 1.511193 3.811740 -0.177149
v 1.511193 3.439655 -0.177149
v 1.511193 3.811740 0.177149
v 1.511193 3.439655 0.177149
v -1.511193 3.811740 0.177149
v -1.511193 3.439655 0.177149
v -1.511193 3.811740 -0.177149
v -1.511193 3.439655 -0.177149
v -1.511193 5.439655 0.177149
v -1.511193 5.439655 -0.177149
v 1.511193 5.439655 -0.177149
v 1.511193 5.439655 0.177149
v 1.511193 5.067572 -0.177149
v 1.511193 5.067572 0.177149
v -1.511193 5.067572 0.177149
v -1.511193 5.067572 -0.177149
v 1.872617 3.811740 -0.177149
v 1.872617 3.439655 -0.177149
v 1.872617 3.811740 0.177149
v 1.872617 3.439655 0.177149
v -1.872617 3.811740 0.177149
v -1.872617 3.439655 0.177149
v -1.872617 3.811740 -0.177149
v -1.872617 3.439655 -0.177149
v -1.872617 5.439655 0.177149
v -1.872617 5.439655 -0.177149
v 1.872617 5.439655 -0.177149
v 1.872617 5.439655 0.177149
v 1.872617 5.067572 -0.177149
v 1.872617 5.067572 0.177149
v -1.872617 5.067572 0.177149
v -1.872617 5.067572 -0.177149
v -0.895801 6.000000 -0.158690
v -0.895801 6.000000 -0.895801
v 0.895801 6.000000 0.895801
v -0.895801 6.000000 0.895801
v 0.895801 6.000000 -0.895801
v 0.895801 6.000000 0.158690
v -0.895801 6.000000 0.158690
v 0.895801 6.000000 -0.158690
v -0.895801 0.177067 -0.158690
v -0.895801 0.177067 -0.895801
v 0.895801 0.177067 0.895801
v -0.895801 0.177067 0.895801
v 0.895801 0.177067 -0.895801
v 0.895801 0.177067 0.158690
v -0.895801 0.177067 0.158690
v 0.895801 0.177067 -0.158690
v 0.895801 5.179506 0.158690
v 0.895801 5.179506 -0.158690
v -0.895801 5.179506 0.158690
v -0.895801 5.179506 -0.158690
v 0.895801 5.179506 0.895801
v -0.895801 5.179506 0.895801
v 0.895801 5.179506 -0.895801
v -0.895801 5.179506 -0.895801
v 0.845695 5.152479 0.149814
v 0.845695 5.152479 -0.149814
v -0.845695 5.152479 0.149814
v -0.845695 5.152479 -0.149814
v 0.845695 5.152479 0.845695
v -0.845695 5.152479 0.845695
v 0.845695 5.152479 -0.845695
v -0.845695 5.152479 -0.845695
v 0.729473 5.128860 0.129225
v 0.729473 5.128860 -0.129225
v -0.729473 5.128860 0.129225
v -0.729473 5.128860 -0.129225
v 0.729473 5.128860 0.729473
v -0.729473 5.128860 0.729473
v 0.729473 5.128860 -0.729473
v -0.729473 5.128860 -0.729473
v 0.593199 5.128860 0.105085
v 0.593199 5.128860 -0.105085
v -0.593199 5.128860 0.105085
v -0.593199 5.128860 -0.105085
v 0.593199 5.128860 0.593199
v -0.593199 5.128860 0.593199
v 0.593199 5.128860 -0.593199
v -0.593199 5.128860 -0.593199
v 0.479590 5.128860 0.084959
v 0.479590 5.128860 -0.084959
v -0.479590 5.128860 0.084959
v -0.479590 5.128860 -0.084959
v 0.479590 5.128860 0.479590
v -0.479590 5.128860 0.479590
v 0.479590 5.128860 -0.479590
v -0.479590 5.128860 -0.479590
v 0.366003 5.128860 0.064837
v 0.366003 5.128860 -0.064837
v -0.366003 5.128860 0.064837
v -0.366003 5.128860 -0.064837
v 0.366003 5.128860 0.366003
v -0.366003 5.128860 0.366003
v 0.366003 5.128860 -0.366003
v -0.366003 5.128860 -0.366003
v 0.275020 5.128860 0.048719
v 0.275020 5.128860 -0.048719
v -0.275020 5.128860 0.048719
v -0.275020 5.128860 -0.048719
v 0.275020 5.128860 0.275020
v -0.275020 5.128860 0.275020
v 0.275020 5.128860 -0.275020
v -0.275020 5.128860 -0.275020
v 1.000000 0.198128 1.000000
v -1.000000 0.198128 1.000000
v 1.000000 0.198128 -1.000000
v 1.000000 0.198128 -0.177149
v 1.000000 0.198128 0.177149
v -1.000000 0.198128 0.177149
v -1.000000 0.198128 -0.177149
v -1.000000 0.198128 -1.000000
v 1.300000 0.000000 -1.300000
v -1.300000 0.000000 -1.300000
v 1.300000 0.000000 -0.230293
v 1.300000 0.198128 1.300000
v 1.300000 0.000000 1.300000
v -1.300000 0.198128 1.300000
v -1.300000 0.000000 1.300000
v 1.300000 0.198128 -1.300000
v -1.300000 0.000000 0.230293
v 1.300000 0.000000 0.230294
v -1.300000 0.000000 -0.230294
v 1.300000 0.198128 -0.230293
v 1.300000 0.198128 0.230294
v -1.300000 0.198128 0.230293
v -1.300000 0.198128 -0.230294
v -1.300000 0.198128 -1.300000
vn -0.0000 1.0000 -0.0000
vn -1.0000 -0.0000 -0.0000
vn -0.0000 -0.0000 -1.0000
vn -0.0000 -1.0000 -0.0000
vn -0.0000 -0.0000 1.0000
vn 1.0000 -0.0000 -0.0000
vn -0.0000 0.8801 -0.4747
vn 0.4748 0.8801 -0.0000
vn -0.4748 0.8801 -0.0000
vn -0.0000 0.8801 0.4747
vn -0.1992 0.9800 -0.0000
vn -0.1991 0.9800 -0.0000
vn -0.0000 0.9800 0.1992
vn 0.1991 0.9800 -0.0000
vn -0.0000 0.9800 -0.1992
vn 0.1992 0.9800 -0.0000
vt 0.625000 0.916667
vt 0.625000 0.833333
vt 0.601652 0.916667
vt 0.625000 1.000000
vt 0.601652 1.000000
vt 0.601652 0.000000
vt 0.625000 0.000000
vt 0.625000 0.250000
vt 0.601652 0.250000
vt 0.291667 0.500000
vt 0.375000 0.500000
vt 0.375000 0.750000
vt 0.291667 0.750000
vt 0.601652 0.500000
vt 0.625000 0.500000
vt 0.625000 0.750000
vt 0.601652 0.750000
vt 0.601652 0.416667
vt 0.625000 0.416667
vt 0.625000 0.333333
vt 0.601652 0.333333
vt 0.125000 0.500000
vt 0.208333 0.500000
vt 0.208333 0.750000
vt 0.125000 0.750000
vt 0.601652 0.833333
vt 0.383255 0.833333
vt 0.518319 0.833333
vt 0.518319 0.916667
vt 0.383255 0.916667
vt 0.546097 0.416667
vt 0.518319 0.416667
vt 0.383255 0.750000
vt 0.518319 0.750000
vt 0.573874 0.750000
vt 0.573874 0.833333
vt 0.383255 0.333333
vt 0.518319 0.333333
vt 0.383255 0.416667
vt 0.573874 0.333333
vt 0.383255 0.250000
vt 0.518319 0.250000
vt 0.573874 0.250000
vt 0.518319 0.500000
vt 0.383255 0.500000
vt 0.573874 0.416667
vt 0.573874 0.500000
vt 0.383255 0.000000
vt 0.518319 0.000000
vt 0.573874 0.000000
vt 0.518319 1.000000
vt 0.383255 1.000000
vt 0.573874 0.916667
vt 0.573875 1.000000
vt 0.546097 0.916667
vt 0.546097 1.000000
vt 0.546097 0.000000
vt 0.546097 0.250000
vt 0.546097 0.500000
vt 0.546097 0.750000
vt 0.546097 0.333333
vt 0.546097 0.833333
vt 0.625000 0.833333
vt 0.791667 0.500000
vt 0.875000 0.500000
vt 0.875000 0.750000
vt 0.791667 0.750000
vt 0.708333 0.500000
vt 0.708333 0.750000
vt 0.375000 0.916667
vt 0.375000 1.000000
vt 0.375000 0.000000
vt 0.375000 0.250000
vt 0.375000 0.416667
vt 0.375000 0.333333
vt 0.375000 0.833333
s 0
usemtl Material
f 12/1/1 11/2/1 87/2/1 81/1/1
f 31/3/2 12/1/2 7/4/2 20/5/2
f 20/6/3 7/7/3 5/8/3 23/9/3
f 9/10/4 2/11/4 4/12/4 14/13/4
f 17/14/5 1/15/5 3/16/5 21/17/5
f 27/18/6 16/19/6 1/15/6 17/14/6
f 23/9/6 5/8/6 15/20/6 25/21/6
f 25/21/6 15/20/6 16/19/6 27/18/6
f 6/22/4 10/23/4 13/24/4 8/25/4
f 10/23/4 9/10/4 14/13/4 13/24/4
f 21/17/2 3/16/2 11/2/2 29/26/2
f 29/26/2 11/2/2 12/1/2 31/3/2
f 7/4/1 12/1/1 81/1/1 82/4/1
f 16/19/1 15/20/1 88/20/1 86/19/1
f 158/27/2 30/28/2 32/29/2 159/30/2
f 44/31/5 28/32/5 52/32/5 51/31/5
f 154/33/2 22/34/2 30/28/2 158/27/2
f 37/35/2 21/17/2 29/26/2 45/36/2
f 156/37/6 26/38/6 28/32/6 157/39/6
f 41/40/3 25/21/3 59/21/3 61/40/3
f 155/41/6 24/42/6 26/38/6 156/37/6
f 39/43/6 23/9/6 25/21/6 41/40/6
f 157/39/6 28/32/6 18/44/6 153/45/6
f 43/46/6 27/18/6 17/14/6 33/47/6
f 153/45/5 18/44/5 22/34/5 154/33/5
f 33/47/5 17/14/5 21/17/5 37/35/5
f 160/48/3 19/49/3 24/42/3 155/41/3
f 36/50/3 20/6/3 23/9/3 39/43/3
f 159/30/2 32/29/2 19/51/2 160/52/2
f 47/53/2 31/3/2 20/5/2 36/54/2
f 32/29/2 48/55/2 35/56/2 19/51/2
f 48/55/2 47/53/2 36/54/2 35/56/2
f 19/49/3 35/57/3 40/58/3 24/42/3
f 35/57/3 36/50/3 39/43/3 40/58/3
f 18/44/5 34/59/5 38/60/5 22/34/5
f 34/59/5 33/47/5 37/35/5 38/60/5
f 28/32/6 44/31/6 34/59/6 18/44/6
f 44/31/6 43/46/6 33/47/6 34/59/6
f 24/42/6 40/58/6 42/61/6 26/38/6
f 40/58/6 39/43/6 41/40/6 42/61/6
f 46/62/1 48/55/1 55/55/1 53/62/1
f 42/61/6 41/40/6 43/46/6 44/31/6
f 22/34/2 38/60/2 46/62/2 30/28/2
f 38/60/2 37/35/2 45/36/2 46/62/2
f 29/26/1 31/3/1 58/3/1 57/26/1
f 46/62/2 45/36/2 47/53/2 48/55/2
f 52/32/4 50/38/4 66/38/4 68/32/4
f 77/40/6 78/46/6 67/31/6 65/61/6
f 57/26/1 58/3/1 74/3/1 73/26/1
f 61/40/3 77/40/3 65/61/3 49/61/3
f 47/53/4 45/36/4 63/36/4 64/53/4
f 27/18/5 43/46/5 62/46/5 60/18/5
f 28/32/4 26/38/4 50/38/4 52/32/4
f 30/28/5 46/62/5 53/62/5 54/28/5
f 25/21/1 27/18/1 60/18/1 59/21/1
f 42/61/1 44/31/1 51/31/1 49/61/1
f 45/36/5 29/26/5 57/26/5 63/36/5
f 43/46/4 41/40/4 61/40/4 62/46/4
f 48/55/3 32/29/3 56/29/3 55/55/3
f 32/29/4 30/28/4 54/28/4 56/29/4
f 26/38/3 42/61/3 49/61/3 50/38/3
f 31/3/3 47/53/3 64/53/3 58/3/3
f 79/36/2 73/26/2 74/3/2 80/53/2
f 77/40/6 75/21/6 76/18/6 78/46/6
f 66/38/6 65/61/6 67/31/6 68/32/6
f 70/28/2 69/62/2 71/55/2 72/29/2
f 79/36/2 80/53/2 71/55/2 69/62/2
f 59/21/1 60/18/1 76/18/1 75/21/1
f 50/38/3 49/61/3 65/61/3 66/38/3
f 63/36/5 79/36/5 69/62/5 53/62/5
f 61/40/3 59/21/3 75/21/3 77/40/3
f 51/31/5 52/32/5 68/32/5 67/31/5
f 60/18/5 62/46/5 78/46/5 76/18/5
f 54/28/5 53/62/5 69/62/5 70/28/5
f 63/36/5 57/26/5 73/26/5 79/36/5
f 55/55/3 56/29/3 72/29/3 71/55/3
f 58/3/3 64/53/3 80/53/3 74/3/3
f 56/29/4 54/28/4 70/28/4 72/29/4
f 78/46/5 62/46/5 51/31/5 67/31/5
f 62/46/2 61/40/2 49/61/2 51/31/2
f 80/53/3 64/53/3 55/55/3 71/55/3
f 64/53/6 63/36/6 53/62/6 55/55/6
f 101/15/2 97/19/2 94/19/2 91/15/2
f 100/1/6 99/63/6 95/2/6 89/1/6
f 97/19/2 98/20/2 96/20/2 94/19/2
f 5/8/1 7/7/1 82/7/1 85/8/1
f 15/20/1 5/8/1 85/8/1 88/20/1
f 3/16/1 1/15/1 83/15/1 84/16/1
f 11/2/1 3/16/1 84/16/1 87/2/1
f 1/15/1 16/19/1 86/19/1 83/15/1
f 96/64/1 93/65/1 90/66/1 89/67/1
f 91/15/1 94/68/1 95/69/1 92/16/1
f 94/68/1 96/64/1 89/67/1 95/69/1
f 102/16/3 101/15/3 91/15/3 92/16/3
f 98/20/2 103/8/2 93/8/2 96/20/2
f 99/63/6 102/16/6 92/16/6 95/2/6
f 103/8/5 104/7/5 90/7/5 93/8/5
f 104/4/6 100/1/6 89/1/6 90/4/6
f 82/4/6 81/1/6 100/1/6 104/4/6
f 85/8/5 82/7/5 104/7/5 103/8/5
f 87/2/6 84/16/6 102/16/6 99/63/6
f 88/20/2 85/8/2 103/8/2 98/20/2
f 84/16/3 83/15/3 101/15/3 102/16/3
f 86/19/2 88/20/2 98/20/2 97/19/2
f 81/1/6 87/2/6 99/63/6 100/1/6
f 83/15/2 86/19/2 97/19/2 101/15/2
f 9/10/4 10/23/4 163/23/4 170/10/4
f 156/37/1 157/39/1 173/39/1 172/37/1
f 2/11/4 9/10/4 170/10/4 165/11/4
f 155/41/1 156/37/1 172/37/1 168/41/1
f 4/12/4 2/11/4 165/11/4 167/12/4
f 157/39/1 153/45/1 164/45/1 173/39/1
f 13/24/4 14/13/4 169/13/4 171/24/4
f 153/45/1 154/33/1 166/33/1 164/45/1
f 171/70/2 175/30/2 176/52/2 162/71/2
f 162/72/3 176/48/3 168/41/3 161/73/3
f 165/11/5 164/45/5 166/33/5 167/12/5
f 170/74/6 173/39/6 164/45/6 165/11/6
f 161/73/6 168/41/6 172/37/6 163/75/6
f 163/75/6 172/37/6 173/39/6 170/74/6
f 167/12/2 166/33/2 174/27/2 169/76/2
f 169/76/2 174/27/2 175/30/2 171/70/2
f 154/33/1 158/27/1 174/27/1 166/33/1
f 158/27/1 159/30/1 175/30/1 174/27/1
f 159/30/1 160/52/1 176/52/1 175/30/1
f 6/22/4 8/25/4 162/25/4 161/22/4
f 14/13/4 4/12/4 167/12/4 169/13/4
f 160/48/1 155/41/1 168/41/1 176/48/1
f 10/23/4 6/22/4 161/22/4 163/23/4
f 8/25/4 13/24/4 171/24/4 162/25/4
usemtl Liquid
f 102/16/7 101/15/7 109/15/7 110/16/7
f 99/63/8 102/16/8 110/16/8 107/63/8
f 104/4/8 100/1/8 108/1/8 112/4/8
f 101/15/9 97/19/9 105/19/9 109/15/9
f 97/19/9 98/20/9 106/20/9 105/19/9
f 98/20/9 103/8/9 111/8/9 106/20/9
f 103/8/10 104/7/10 112/7/10 111/8/10
f 100/1/8 99/63/8 107/63/8 108/1/8
f 109/15/11 105/19/11 113/19/11 117/15/11
f 105/19/12 106/20/12 114/20/12 113/19/12
f 106/20/11 111/8/11 119/8/11 114/20/11
f 111/8/13 112/7/13 120/7/13 119/8/13
f 108/1/14 107/63/14 115/63/14 116/1/14
f 110/16/15 109/15/15 117/15/15 118/16/15
f 107/63/16 110/16/16 118/16/16 115/63/16
f 112/4/16 108/1/16 116/1/16 120/4/16
f 115/63/1 118/16/1 126/16/1 123/63/1
f 120/4/1 116/1/1 124/1/1 128/4/1
f 117/15/1 113/19/1 121/19/1 125/15/1
f 113/19/1 114/20/1 122/20/1 121/19/1
f 114/20/1 119/8/1 127/8/1 122/20/1
f 119/8/1 120/7/1 128/7/1 127/8/1
f 116/1/1 115/63/1 123/63/1 124/1/1
f 118/16/1 117/15/1 125/15/1 126/16/1
f 124/1/1 123/63/1 131/63/1 132/1/1
f 126/16/1 125/15/1 133/15/1 134/16/1
f 123/63/1 126/16/1 134/16/1 131/63/1
f 128/4/1 124/1/1 132/1/1 136/4/1
f 125/15/1 121/19/1 129/19/1 133/15/1
f 121/19/1 122/20/1 130/20/1 129/19/1
f 122/20/1 127/8/1 135/8/1 130/20/1
f 127/8/1 128/7/1 136/7/1 135/8/1
f 130/20/1 135/8/1 143/8/1 138/20/1
f 135/8/1 136/7/1 144/7/1 143/8/1
f 132/1/1 131/63/1 139/63/1 140/1/1
f 134/16/1 133/15/1 141/15/1 142/16/1
f 131/63/1 134/16/1 142/16/1 139/63/1
f 136/4/1 132/1/1 140/1/1 144/4/1
f 133/15/1 129/19/1 137/19/1 141/15/1
f 129/19/1 130/20/1 138/20/1 137/19/1
f 141/15/1 137/19/1 145/19/1 149/15/1
f 137/19/1 138/20/1 146/20/1 145/19/1
f 138/20/1 143/8/1 151/8/1 146/20/1
f 143/8/1 144/7/1 152/7/1 151/8/1
f 140/1/1 139/63/1 147/63/1 148/1/1
f 142/16/1 141/15/1 149/15/1 150/16/1
f 139/63/1 142/16/1 150/16/1 147/63/1
f 144/4/1 140/1/1 148/1/1 152/4/1
f 146/20/1 148/1/1 147/63/1 145/19/1
f 150/16/1 149/15/1 145/19/1 147/63/1
f 148/1/1 146/20/1 151/8/1 152/7/1
